<?xml version="1.0" encoding="utf-8"?>
<!-- Generator: Adobe Illustrator 24.2.3, SVG Export Plug-In . SVG Version: 6.00 Build 0)  -->
<svg version="1.1" id="Layer_1" xmlns="http://www.w3.org/2000/svg" xmlns:xlink="http://www.w3.org/1999/xlink" x="0px" y="0px"
	 viewBox="0 0 120 120" style="enable-background:new 0 0 120 120;" xml:space="preserve">
<style type="text/css">
	.st0{fill:#231F20;}
</style>
<g>
	<g>
		<path class="st0" d="M60,120c-8.1,0-15.96-1.59-23.36-4.72c-7.14-3.02-13.56-7.35-19.07-12.86C12.06,96.92,7.73,90.5,4.71,83.36
			C1.58,75.96,0,68.1,0,60s1.59-15.96,4.72-23.36c3.02-7.14,7.35-13.56,12.86-19.07S29.49,7.74,36.64,4.72C44.04,1.59,51.9,0,60,0
			s15.96,1.59,23.36,4.72c7.14,3.02,13.56,7.35,19.07,12.86c5.51,5.51,9.83,11.93,12.86,19.07C118.41,44.04,120,51.9,120,60
			s-1.59,15.96-4.72,23.36c-3.02,7.14-7.35,13.56-12.86,19.07c-5.51,5.51-11.93,9.83-19.07,12.86C75.95,118.41,68.1,120,60,120z
			 M60,3.61c-7.61,0-15,1.49-21.95,4.43c-6.71,2.84-12.74,6.91-17.93,12.09c-5.18,5.18-9.25,11.21-12.09,17.92
			C5.09,45,3.6,52.39,3.6,60S5.1,75,8.03,81.95c2.84,6.71,6.91,12.74,12.09,17.92c5.18,5.18,11.21,9.25,17.93,12.09
			c6.95,2.94,14.34,4.43,21.95,4.43c7.61,0,15-1.49,21.95-4.43c6.71-2.84,12.74-6.91,17.93-12.09c5.18-5.18,9.25-11.21,12.09-17.92
			c2.94-6.95,4.43-14.34,4.43-21.95s-1.49-15-4.43-21.95c-2.84-6.71-6.91-12.74-12.09-17.92c-5.18-5.18-11.21-9.25-17.93-12.09
			C74.99,5.1,67.61,3.61,60,3.61z"/>
	</g>
	<g>
		<path class="st0" d="M85.13,93.14H34.86c-0.85,0-1.58-0.59-1.76-1.42l-8.77-40.58c-0.11-0.53,0.02-1.09,0.36-1.51
			c0.34-0.42,0.86-0.67,1.41-0.67h11.32c1,0,1.81,0.81,1.81,1.81s-0.81,1.81-1.81,1.81h-9.08l7.99,36.97h47.36l7.99-36.97H54.62
			c-1,0-1.81-0.81-1.81-1.81s0.81-1.81,1.81-1.81h39.28c0.55,0,1.06,0.25,1.41,0.67c0.34,0.42,0.47,0.98,0.36,1.51L86.9,91.71
			C86.72,92.54,85.98,93.14,85.13,93.14z"/>
	</g>
	<g>
		<path class="st0" d="M45.74,61.81c-1,0-1.81-0.81-1.81-1.81V36.5c0-8.86,7.2-16.06,16.06-16.06s16.06,7.2,16.06,16.06v14.26
			c0,1-0.81,1.81-1.81,1.81c-1,0-1.81-0.81-1.81-1.81V36.5c0-6.87-5.59-12.45-12.45-12.45S47.54,29.63,47.54,36.5V60
			C47.54,61,46.74,61.81,45.74,61.81z"/>
	</g>
</g>
</svg>
