<?xml version="1.0" encoding="utf-8"?>
<!-- Generator: Adobe Illustrator 24.2.3, SVG Export Plug-In . SVG Version: 6.00 Build 0)  -->
<svg version="1.1" id="Layer_1" xmlns="http://www.w3.org/2000/svg" xmlns:xlink="http://www.w3.org/1999/xlink" x="0px" y="0px"
	 viewBox="0 0 120 120" style="enable-background:new 0 0 120 120;" xml:space="preserve">
<style type="text/css">
	.st0{fill:#231F20;}
</style>
<g>
	<g>
		<path class="st0" d="M60,120c-8.1,0-15.96-1.59-23.36-4.72c-7.14-3.02-13.56-7.35-19.07-12.86C12.06,96.92,7.73,90.5,4.71,83.36
			C1.58,75.96,0,68.1,0,60s1.59-15.96,4.72-23.36c3.02-7.14,7.35-13.56,12.86-19.07S29.49,7.74,36.64,4.72C44.04,1.59,51.9,0,60,0
			s15.96,1.59,23.36,4.72c7.14,3.02,13.56,7.35,19.07,12.86c5.51,5.51,9.83,11.93,12.86,19.07C118.41,44.04,120,51.9,120,60
			s-1.59,15.96-4.72,23.36c-3.02,7.14-7.35,13.56-12.86,19.07c-5.51,5.51-11.93,9.83-19.07,12.86C75.95,118.41,68.1,120,60,120z
			 M60,3.61c-7.61,0-15,1.49-21.95,4.43c-6.71,2.84-12.74,6.91-17.92,12.09S10.88,31.34,8.04,38.05C5.1,45,3.61,52.39,3.61,60
			S5.1,75,8.04,81.95c2.84,6.71,6.91,12.74,12.09,17.93c5.18,5.18,11.21,9.25,17.92,12.09c6.95,2.94,14.34,4.43,21.95,4.43
			c7.61,0,15-1.49,21.95-4.43c6.71-2.84,12.74-6.91,17.92-12.09c5.18-5.18,9.25-11.21,12.09-17.93c2.94-6.95,4.43-14.34,4.43-21.95
			s-1.49-15-4.43-21.95c-2.84-6.71-6.91-12.74-12.09-17.93c-5.18-5.18-11.21-9.25-17.92-12.09C74.99,5.1,67.61,3.61,60,3.61z"/>
	</g>
	<g>
		<path class="st0" d="M67.11,78.37H54.87c-0.96,0-1.75-0.78-1.75-1.75V64.39c0-0.46,0.18-0.91,0.51-1.24l36.21-36.21
			c0.68-0.68,1.79-0.68,2.47,0c0.68,0.68,0.68,1.79,0,2.47l-35.7,35.7v9.77h9.77l25.17-25.17c0.68-0.68,1.79-0.68,2.47,0
			c0.68,0.68,0.68,1.79,0,2.47L68.34,77.85C68.01,78.18,67.57,78.37,67.11,78.37z"/>
	</g>
	<g>
		<path class="st0" d="M85.17,86.7H36.05c-0.96,0-1.75-0.78-1.75-1.75V34.09c0-0.96,0.78-1.75,1.75-1.75h49.12
			c0.96,0,1.75,0.78,1.75,1.75c0,0.96-0.78,1.75-1.75,1.75H37.8v47.38h45.63V59.52c0-0.96,0.78-1.75,1.75-1.75s1.75,0.78,1.75,1.75
			v25.44C86.91,85.92,86.13,86.7,85.17,86.7z"/>
	</g>
	<g>
		<polygon class="st0" points="54.87,64.39 67.11,76.62 54.87,76.62 		"/>
	</g>
	<g>
		<path class="st0" d="M80.53,93.17H36.05c-0.96,0-1.75-0.78-1.75-1.75c0-0.96,0.78-1.75,1.75-1.75h44.48
			c0.96,0,1.75,0.78,1.75,1.75C82.28,92.39,81.49,93.17,80.53,93.17z"/>
	</g>
</g>
</svg>
