<?xml version="1.0" encoding="utf-8"?>
<!-- Generator: Adobe Illustrator 24.2.3, SVG Export Plug-In . SVG Version: 6.00 Build 0)  -->
<svg version="1.1" id="Layer_1" xmlns="http://www.w3.org/2000/svg" xmlns:xlink="http://www.w3.org/1999/xlink" x="0px" y="0px"
	 viewBox="0 0 120 120" style="enable-background:new 0 0 120 120;" xml:space="preserve">
<style type="text/css">
	.st0{fill:#231F20;}
</style>
<g>
	<g>
		<path class="st0" d="M60,120c-8.1,0-15.96-1.59-23.36-4.72c-7.14-3.02-13.56-7.35-19.07-12.86C12.06,96.92,7.73,90.5,4.71,83.36
			C1.58,75.96,0,68.1,0,60s1.59-15.96,4.72-23.36c3.02-7.14,7.35-13.56,12.86-19.07S29.49,7.74,36.64,4.72C44.04,1.59,51.9,0,60,0
			s15.96,1.59,23.36,4.72c7.14,3.02,13.56,7.35,19.07,12.86c5.51,5.51,9.83,11.93,12.86,19.07C118.41,44.04,120,51.9,120,60
			s-1.59,15.96-4.72,23.36c-3.02,7.14-7.35,13.56-12.86,19.07c-5.51,5.51-11.93,9.83-19.07,12.86C75.95,118.41,68.1,120,60,120z
			 M60,3.61c-7.61,0-15,1.49-21.95,4.43c-6.71,2.84-12.74,6.91-17.92,12.09S10.88,31.34,8.04,38.05C5.1,45,3.61,52.39,3.61,60
			S5.1,75,8.04,81.95c2.84,6.71,6.91,12.74,12.09,17.93c5.18,5.18,11.21,9.25,17.92,12.09c6.95,2.94,14.33,4.43,21.95,4.43
			c7.61,0,15-1.49,21.95-4.43c6.71-2.84,12.74-6.91,17.93-12.09c5.18-5.18,9.25-11.21,12.09-17.93c2.94-6.95,4.43-14.34,4.43-21.95
			s-1.49-15-4.43-21.95c-2.84-6.71-6.91-12.74-12.09-17.93c-5.18-5.18-11.21-9.25-17.93-12.09C74.99,5.1,67.61,3.61,60,3.61z"/>
	</g>
	<g>
		<g>
			<path class="st0" d="M52.87,93.63c-1,0-1.81-0.81-1.81-1.81s0.81-1.81,1.81-1.81c1.13,0,2.26-0.25,3.37-0.74
				c-1.13-1.11-2.19-2.42-3.19-3.92c-1.51,2.34-3.19,4.21-5.01,5.58c-0.8,0.6-1.93,0.43-2.53-0.37s-0.43-1.93,0.37-2.53
				c2.05-1.53,3.91-3.91,5.54-7.08c0.31-0.6,0.92-0.97,1.59-0.98c0,0,0.01,0,0.01,0c0.67,0,1.28,0.37,1.59,0.96
				c1.67,3.14,3.67,5.61,5.78,7.15c0.46,0.34,0.74,0.88,0.74,1.46c0,0.57-0.27,1.12-0.74,1.46C58.01,92.74,55.48,93.63,52.87,93.63z
				"/>
		</g>
		<g>
			<path class="st0" d="M78.41,93.63c-1,0-1.81-0.81-1.81-1.81s0.81-1.81,1.81-1.81c4.22,0,8.3-3.43,11.46-9.67
				c3.37-6.62,5.22-15.46,5.22-24.9c0-8.13-1.43-16.05-4.03-22.3c-0.94-2.2-1.93-2.96-2.29-3.17h-7.91
				c0.32,0.54,0.64,1.17,0.94,1.88c2.79,6.77,4.27,14.92,4.27,23.59c0,12.76-3.98,29.36-12.71,35.64c-0.81,0.58-1.94,0.4-2.52-0.41
				c-0.58-0.81-0.4-1.94,0.41-2.52c3.36-2.42,6.23-7.12,8.29-13.58c1.85-5.79,2.91-12.77,2.91-19.13c0-8.08-1.42-15.97-3.99-22.2
				c-1.06-2.53-2.19-3.2-2.43-3.32c-0.92-0.13-1.5-0.93-1.45-1.87c0.05-0.96,0.95-1.69,1.91-1.69h12.64c0.14,0,0.27,0.02,0.41,0.05
				c0.48,0.11,2.95,0.89,4.84,5.33c0,0.01,0,0.01,0.01,0.02c2.82,6.78,4.31,14.97,4.31,23.69c0,9.99-1.99,19.42-5.61,26.54
				C89.28,89.49,84.07,93.63,78.41,93.63z M76.09,29.93L76.09,29.93L76.09,29.93z"/>
		</g>
		<g>
			<path class="st0" d="M78.41,93.63H66.04c-0.04,0-0.09,0-0.13,0h0c-0.05,0-0.09,0-0.14,0c-2.55,0-5.04-0.85-7.37-2.52
				c-3.83-2.74-7.08-7.57-9.39-13.96c-2.31-6.37-3.53-13.88-3.53-21.7c0-6.45,2.81-15.44,7.39-15.44h12.9c1,0,1.81,0.81,1.81,1.81
				s-0.81,1.81-1.81,1.81c-0.52,0-1.05,0.37-1.57,1.11c-1.56,2.19-2.51,6.79-2.55,12.31c-0.04,6.07,0.99,12.42,2.9,17.87
				c0,0.01,0,0.01,0.01,0.02c0.78,2.31,1.71,4.38,2.77,6.14l0,0c3.52,5.89,7.3,8.9,11.25,8.95c0.99,0.01,1.78,0.81,1.78,1.8
				c0,0.99-0.79,1.79-1.78,1.81l-0.03,0C78.51,93.63,78.46,93.63,78.41,93.63z M65.92,90.01c0.01,0,0.02,0,0.04,0l0.1,0
				c0.05-0.01,0.1-0.01,0.16-0.01c0.04,0,0.09-0.01,0.13-0.01l0.06,0c0.16-0.01,0.31,0,0.46,0.03h3.04
				c-1.99-1.74-3.89-4.11-5.67-7.1l0,0c-1.18-1.98-2.22-4.28-3.08-6.83C59.1,70.25,58,63.48,58.04,57
				c0.04-5.73,0.96-10.42,2.6-13.39h-7.75c-0.24,0.07-1.25,0.85-2.3,3.56c-0.96,2.49-1.51,5.5-1.51,8.28
				c0,7.41,1.15,14.49,3.31,20.47c2.04,5.62,4.91,9.97,8.1,12.25c1.71,1.22,3.48,1.84,5.27,1.84l0.12,0
				C65.9,90.01,65.91,90.01,65.92,90.01z M52.9,43.61L52.9,43.61z"/>
		</g>
		<g>
			<path class="st0" d="M40.71,93.63c-0.11,0-0.22,0-0.32-0.01c-0.04,0-0.08,0-0.12,0c-0.08,0-0.16-0.01-0.24-0.02
				c-3.2-0.21-6.16-1.55-8.8-3.99c-2.24-2.07-4.22-4.89-5.86-8.38c-1.86-3.94-3.21-8.56-3.79-12.99c-0.34-2.59-0.69-7.24,0.87-9.32
				c0.34-0.46,0.88-0.72,1.44-0.72h12.53c0.74,0,1.41,0.45,1.68,1.14c0.25,0.63,0.12,1.34-0.32,1.85c-0.24,0.58-0.51,3.04,0.13,7.21
				c0.39,2.56,1.41,7.56,3.9,12.29c2.95,5.6,6.82,8.75,11.5,9.35c0.94,0.12,1.62,0.94,1.57,1.89c-0.05,0.94-0.82,1.69-1.76,1.71
				l-0.06,0c-0.07,0-0.13,0-0.2,0H41.05C40.93,93.63,40.82,93.63,40.71,93.63z M40.53,90.02c0.13,0,0.27,0,0.44,0
				c0.02,0,0.04,0,0.06,0h3.62c-3.68-2.99-6.63-7.71-8.62-13.91c-1.11-3.46-1.84-7.2-2.05-10.54c-0.1-1.6-0.07-2.82,0.03-3.76h-8.91
				c-0.21,1.01-0.33,3,0.08,6.05c0.55,4.05,1.83,8.42,3.53,11.98c3.88,8.14,8.54,10.03,11.76,10.19
				C40.48,90.02,40.5,90.02,40.53,90.02C40.52,90.02,40.53,90.02,40.53,90.02z"/>
		</g>
		<g>
			<path class="st0" d="M65.77,83.79c-0.65,0-1.24-0.35-1.57-0.91c-3.33-5.8-5.48-13.48-6.03-21.62c-0.51-7.5,0.45-14.18,2.58-17.85
				c1.63-2.82,3.62-3.41,5.01-3.41h0.01c1.39,0,3.38,0.59,5.01,3.41c2.13,3.68,3.09,10.35,2.58,17.85
				c-0.56,8.14-2.7,15.82-6.03,21.62C67.02,83.45,66.42,83.79,65.77,83.79z M65.77,43.62c-0.79,0-1.46,0.87-1.89,1.61
				c-1.76,3.03-2.56,9.09-2.1,15.8c0.42,6.11,1.84,12.11,4,16.96c2.15-4.86,3.58-10.85,4-16.96c0.46-6.71-0.35-12.77-2.1-15.8
				c-0.42-0.73-1.1-1.61-1.89-1.61L65.77,43.62L65.77,43.62z"/>
		</g>
	</g>
</g>
</svg>
