<?xml version="1.0" encoding="utf-8"?>
<!-- Generator: Adobe Illustrator 24.2.3, SVG Export Plug-In . SVG Version: 6.00 Build 0)  -->
<svg version="1.1" id="Layer_1" xmlns="http://www.w3.org/2000/svg" xmlns:xlink="http://www.w3.org/1999/xlink" x="0px" y="0px"
	 viewBox="0 0 49.97 43.09" style="enable-background:new 0 0 49.97 43.09;" xml:space="preserve">
<style type="text/css">
	.st0{fill:#A27300;}
	.st1{fill:#FFFFFF;}
</style>
<g>
	<g>
		<path class="st0" d="M20.26,36.29c-2.06,4.02-4.95,6.8-8.66,6.8h8.56c1.54,0,3.01-0.55,4.37-1.54
			C22.93,40.37,21.48,38.57,20.26,36.29z"/>
		<path class="st0" d="M47.14,2.89C46.04,0.31,44.71,0,44.71,0h-8.56c0,0,1.35,0.31,2.46,2.97c1.75,4.23,2.79,9.62,2.79,15.5
			c0,10.64-4.19,24.62-12.52,24.62h8.56c6.91,0,12.52-11.02,12.52-24.62C49.97,12.56,48.91,7.14,47.14,2.89z"/>
		<path class="st1" d="M28.9,36.43c-0.77-1.29-1.43-2.77-1.98-4.39c-3.51-10-2.23-22.8,1.98-22.8h-8.73c-1.83,0-3.78,4.75-3.78,9.23
			c0,10.64,3.43,19.71,8.24,23.14c1.33,0.96,2.78,1.48,4.28,1.48c0.03,0,0.07,0,0.1,0c0.03,0,0.06,0,0.08,0h8.37
			c0.03,0,0.06,0,0.09,0C35.97,43.06,32.56,42.56,28.9,36.43z M29.25,43.07c0.05,0,0.1-0.01,0.15-0.01
			C29.35,43.07,29.3,43.07,29.25,43.07z"/>
		<path class="st1" d="M20.31,43.08C9.49,41.7,7.43,23.03,9.03,21.54H0.55c-1.98,2.65,1.37,21.08,11.16,21.54c-0.02,0-0.03,0-0.05,0
			c0.02,0,0.03,0,0.05,0c0.01,0,0.02,0,0.03,0c0,0,0.01,0,0.01,0c0.14,0.01,0.27,0,0.41,0h8.02C20.21,43.09,20.26,43.08,20.31,43.08
			z"/>
		<path class="st0" d="M28.9,9.23L28.9,9.23c-4.87,0-5.82,17.08,0,27.2l0,0C34.71,26.31,33.76,9.23,28.9,9.23z"/>
	</g>
</g>
</svg>
