<?xml version="1.0" encoding="utf-8"?>
<!-- Generator: Adobe Illustrator 24.2.3, SVG Export Plug-In . SVG Version: 6.00 Build 0)  -->
<svg version="1.1" id="Layer_1" xmlns="http://www.w3.org/2000/svg" xmlns:xlink="http://www.w3.org/1999/xlink" x="0px" y="0px"
	 viewBox="0 0 120 120" style="enable-background:new 0 0 120 120;" xml:space="preserve">
<style type="text/css">
	.st0{fill:#231F20;}
</style>
<g>
	<g>
		<path class="st0" d="M60,120c-8.1,0-15.96-1.59-23.36-4.72c-7.14-3.02-13.56-7.35-19.07-12.86C12.06,96.92,7.73,90.5,4.71,83.36
			C1.58,75.96,0,68.1,0,60s1.59-15.96,4.72-23.36c3.02-7.14,7.35-13.56,12.86-19.07S29.49,7.74,36.64,4.72C44.04,1.59,51.9,0,60,0
			s15.96,1.59,23.36,4.72c7.14,3.02,13.56,7.35,19.07,12.86c5.51,5.51,9.83,11.93,12.86,19.07C118.41,44.04,120,51.9,120,60
			s-1.59,15.96-4.72,23.36c-3.02,7.14-7.35,13.56-12.86,19.07c-5.51,5.51-11.93,9.83-19.07,12.86C75.95,118.41,68.1,120,60,120z
			 M60,3.61c-7.61,0-15,1.49-21.95,4.43c-6.71,2.84-12.74,6.91-17.92,12.09S10.88,31.34,8.04,38.05C5.1,45,3.61,52.39,3.61,60
			S5.1,75,8.04,81.95c2.84,6.71,6.91,12.74,12.09,17.93c5.18,5.18,11.21,9.25,17.92,12.09c6.95,2.94,14.34,4.43,21.95,4.43
			c7.61,0,15-1.49,21.95-4.43c6.71-2.84,12.74-6.91,17.92-12.09c5.18-5.18,9.25-11.21,12.09-17.93c2.94-6.95,4.43-14.34,4.43-21.95
			s-1.49-15-4.43-21.95c-2.84-6.71-6.91-12.74-12.09-17.93c-5.18-5.18-11.21-9.25-17.92-12.09C74.99,5.1,67.61,3.61,60,3.61z"/>
	</g>
	<g>
		<g>
			<path class="st0" d="M80.79,89.76H68.06c-0.96,0-1.75-0.78-1.75-1.75s0.78-1.75,1.75-1.75h10.98V61.43
				c0-0.96,0.78-1.75,1.75-1.75h4.58c0.96,0,1.75,0.78,1.75,1.75c0,0.96-0.78,1.75-1.75,1.75h-2.84v24.84
				C82.54,88.98,81.76,89.76,80.79,89.76z"/>
		</g>
		<g>
			<path class="st0" d="M68.06,101.09c-0.23,0-0.46-0.05-0.68-0.14L38.51,88.68c-0.64-0.27-1.06-0.91-1.06-1.61V31.98
				c0-0.96,0.78-1.75,1.75-1.75h41.6c0.96,0,1.75,0.78,1.75,1.75v20.95c0,0.96-0.78,1.75-1.75,1.75c-0.96,0-1.75-0.78-1.75-1.75
				v-19.2h-38.1v52.19L66.32,96.7V47.06l-18-7.44c-0.89-0.37-1.32-1.39-0.95-2.28c0.37-0.89,1.39-1.32,2.28-0.95l19.08,7.89
				c0.65,0.27,1.08,0.91,1.08,1.61v53.45c0,0.59-0.29,1.13-0.78,1.46C68.74,100.99,68.4,101.09,68.06,101.09z"/>
		</g>
		<g>
			<path class="st0" d="M100.26,54.68H77.33c-0.96,0-1.75-0.78-1.75-1.75c0-0.96,0.78-1.75,1.75-1.75h22.93
				c0.96,0,1.75,0.78,1.75,1.75C102,53.9,101.22,54.68,100.26,54.68z"/>
		</g>
		<g>
			<path class="st0" d="M100.25,54.68c-0.45,0-0.89-0.17-1.24-0.51L88.61,43.76c-0.68-0.68-0.68-1.79,0-2.47s1.79-0.68,2.47,0
				l10.41,10.41c0.68,0.68,0.68,1.79,0,2.47C101.15,54.51,100.7,54.68,100.25,54.68z"/>
		</g>
	</g>
</g>
</svg>
