<?xml version="1.0" encoding="utf-8"?>
<!-- Generator: Adobe Illustrator 24.2.3, SVG Export Plug-In . SVG Version: 6.00 Build 0)  -->
<svg version="1.1" id="Layer_1" xmlns="http://www.w3.org/2000/svg" xmlns:xlink="http://www.w3.org/1999/xlink" x="0px" y="0px"
	 viewBox="0 0 161.55 25.22" style="enable-background:new 0 0 161.55 25.22;" xml:space="preserve">
<style type="text/css">
	.st0{fill:#30261D;}
	.st1{fill:#FFFFFF;}
</style>
<g>
	<rect x="0" y="0" class="st0" width="161.55" height="25.22"/>
	<g>
		<path class="st1" d="M34.81,0.04h2.58c0.33,0,0.55,0.33,0.43,0.64l-9.88,24.55h-0.79l-8.2-20.39l-8.28,20.39H9.89L0.03,0.67
			c-0.12-0.31,0.1-0.64,0.43-0.64h2.62c0.19,0,0.36,0.12,0.43,0.29l6.8,17l6.32-15.71c0.38-0.95,1.31-1.58,2.33-1.58h0
			c1.02,0,1.95,0.62,2.33,1.57l6.36,15.72l6.72-16.99C34.45,0.15,34.62,0.04,34.81,0.04z"/>
		<path class="st1" d="M61.76,0.04h2.66c0.26,0,0.46,0.21,0.46,0.46v24.15c0,0.26-0.21,0.46-0.46,0.46h-2.66
			c-0.26,0-0.46-0.21-0.46-0.46v-9.35c0-0.61-0.5-1.11-1.11-1.11H48.31c-0.61,0-1.11,0.5-1.11,1.11v9.35c0,0.26-0.21,0.46-0.46,0.46
			h-2.66c-0.26,0-0.46-0.21-0.46-0.46V0.5c0-0.26,0.21-0.46,0.46-0.46h2.66c0.26,0,0.46,0.21,0.46,0.46v9.27
			c0,0.61,0.5,1.11,1.11,1.11h11.88c0.61,0,1.11-0.5,1.11-1.11V0.5C61.3,0.24,61.5,0.04,61.76,0.04z"/>
		<path class="st1" d="M73.67,0.04h2.66c0.26,0,0.46,0.21,0.46,0.46v24.15c0,0.26-0.21,0.46-0.46,0.46h-2.66
			c-0.26,0-0.46-0.21-0.46-0.46V0.5C73.21,0.24,73.42,0.04,73.67,0.04z"/>
		<path class="st1" d="M83.03,0h18.95c0.92,0,1.44,1.04,0.9,1.78L88.15,21.92h15.56c0.26,0,0.46,0.21,0.46,0.46v2.27
			c0,0.26-0.21,0.46-0.46,0.46H83.75c-0.92,0-1.44-1.04-0.9-1.78L97.58,3.2H83.03c-0.26,0-0.46-0.21-0.46-0.46V0.46
			C82.56,0.21,82.77,0,83.03,0z"/>
		<path class="st1" d="M110.4,0.04h2.66c0.26,0,0.46,0.21,0.46,0.46v21.35h10.83c0.26,0,0.46,0.21,0.46,0.46v2.34
			c0,0.26-0.21,0.46-0.46,0.46h-13.31c-0.61,0-1.11-0.5-1.11-1.11V0.5C109.94,0.24,110.15,0.04,110.4,0.04z"/>
		<path class="st1" d="M131.05,0.04h2.66c0.26,0,0.46,0.21,0.46,0.46v24.15c0,0.26-0.21,0.46-0.46,0.46h-2.66
			c-0.26,0-0.46-0.21-0.46-0.46V0.5C130.59,0.24,130.79,0.04,131.05,0.04z"/>
		<path class="st1" d="M140.4,0h18.95c0.92,0,1.44,1.04,0.9,1.78l-14.72,20.14h15.56c0.26,0,0.46,0.21,0.46,0.46v2.27
			c0,0.26-0.21,0.46-0.46,0.46h-19.97c-0.92,0-1.44-1.04-0.9-1.78L154.96,3.2H140.4c-0.26,0-0.46-0.21-0.46-0.46V0.46
			C139.94,0.21,140.15,0,140.4,0z"/>
	</g>
</g>
</svg>
