<?xml version="1.0" encoding="utf-8"?>
<!-- Generator: Adobe Illustrator 24.2.3, SVG Export Plug-In . SVG Version: 6.00 Build 0)  -->
<svg version="1.1" id="Layer_1" xmlns="http://www.w3.org/2000/svg" xmlns:xlink="http://www.w3.org/1999/xlink" x="0px" y="0px"
	 viewBox="0 0 49.97 43.09" style="enable-background:new 0 0 49.97 43.09;" xml:space="preserve">
<style type="text/css">
	.st0{fill:#30261D;}
</style>
<g>
	<g>
		<path class="st0" d="M20.23,43.13c-0.2,0-0.37-0.16-0.37-0.37c0-0.2,0.16-0.37,0.37-0.37c1.26,0,2.49-0.39,3.68-1.17
			c-1.32-1.06-2.51-2.54-3.58-4.39c-1.12,2.03-2.41,3.6-3.83,4.66c-0.16,0.12-0.39,0.09-0.51-0.07c-0.12-0.16-0.09-0.39,0.07-0.51
			c1.47-1.1,2.8-2.78,3.94-5.01c0.06-0.12,0.18-0.21,0.33-0.2c0.14,0,0.26,0.07,0.32,0.19c1.19,2.23,2.57,3.93,4.1,5.05
			c0.09,0.07,0.15,0.18,0.15,0.3c0,0.12-0.06,0.23-0.15,0.3C23.32,42.6,21.79,43.13,20.23,43.13z"/>
	</g>
	<g>
		<path class="st0" d="M37.27,43.13c-0.2,0-0.37-0.16-0.37-0.37c0-0.2,0.16-0.37,0.37-0.37c6.6,0,11.96-10.72,11.96-23.89
			c0-5.53-0.98-10.93-2.75-15.2c-0.98-2.3-2.13-2.63-2.14-2.64l-7.13,0.01c0.48,0.46,1.04,1.21,1.55,2.42
			c1.79,4.35,2.78,9.82,2.78,15.41c0,8.3-2.54,19.07-8.12,23.09c-0.16,0.12-0.39,0.08-0.51-0.08c-0.12-0.16-0.08-0.39,0.08-0.51
			c5.13-3.7,7.82-14.11,7.82-22.49c0-5.5-0.97-10.87-2.72-15.13c-0.99-2.37-2.16-2.7-2.18-2.71c-0.18-0.05-0.3-0.22-0.27-0.4
			c0.02-0.18,0.18-0.32,0.36-0.32h8.43c0.14,0.02,1.58,0.38,2.73,3.08c1.81,4.36,2.81,9.86,2.81,15.48
			C49.97,32.09,44.27,43.13,37.27,43.13z"/>
	</g>
	<g>
		<path class="st0" d="M37.27,43.13h-8.25L29,43.07c-0.04-0.02-0.07-0.05-0.09-0.08l0,0.14c-1.63-0.03-3.08-0.51-4.5-1.52
			c-4.95-3.54-8.27-12.82-8.27-23.1c0-4.26,1.89-9.46,4.09-9.46h8.6c0.2,0,0.37,0.16,0.37,0.37c0,0.2-0.16,0.37-0.37,0.37
			c-0.63,0-1.21,0.37-1.73,1.09c-2.27,3.2-2.7,12.82,0.13,20.89c0.54,1.6,1.19,3.03,1.92,4.26c2.5,4.2,5.27,6.34,8.21,6.38
			c0.2,0,0.36,0.17,0.36,0.37s-0.16,0.36-0.36,0.37C37.36,43.13,37.27,43.13,37.27,43.13z M20.23,9.78c-1.44,0-3.36,4.32-3.36,8.73
			c0,10.05,3.2,19.09,7.96,22.5c1.29,0.92,2.63,1.39,4,1.39c0,0,0.1,0,0.1,0h0.17c0.02,0,0.04-0.01,0.06-0.01l0.1-0.01l0,0.01
			l5.04,0c-2.06-1-4-3-5.79-6l0,0c-0.76-1.27-1.43-2.75-1.98-4.4c-2.7-7.7-2.71-17.77-0.03-21.55c0.18-0.26,0.37-0.48,0.58-0.67
			H20.23z"/>
	</g>
	<g>
		<path class="st0" d="M12.12,43.14c-0.07,0-0.14,0-0.21,0c-0.01,0-0.02,0-0.04,0v0c-4.7-0.22-7.62-4.35-9.23-7.78
			c-2.61-5.53-3.3-12.34-2.04-14.03c0.07-0.09,0.18-0.15,0.29-0.15h8.36c0.15,0,0.29,0.09,0.34,0.23c0.05,0.14,0.02,0.3-0.09,0.4
			c-0.51,0.47-0.67,4.85,0.98,9.99c1.16,3.63,4,9.83,9.93,10.59c0.19,0.02,0.33,0.19,0.32,0.38c-0.01,0.19-0.17,0.34-0.36,0.35
			l-0.01-0.37l-0.04,0.37l-0.11,0h-7.9C12.27,43.14,12.2,43.14,12.12,43.14z M11.95,42.4c0.01,0,0.01,0,0.01,0c0.11,0,0.24,0,0.36,0
			h5.36c-4.55-1.98-6.85-7.15-7.89-10.37C8.56,28.18,8.1,23.7,8.67,21.91H1.11c-0.87,1.62-0.28,7.85,2.21,13.13
			c1.53,3.24,4.26,7.15,8.6,7.36C11.93,42.4,11.94,42.4,11.95,42.4z"/>
	</g>
	<g>
		<path class="st0" d="M28.84,36.58c-0.13,0-0.25-0.07-0.32-0.18c-4.58-7.96-5.09-20.67-2.3-25.49c0.89-1.53,1.91-1.86,2.62-1.86
			h0.01c0.7,0,1.73,0.32,2.62,1.85c2.79,4.82,2.27,17.53-2.3,25.49C29.09,36.51,28.97,36.58,28.84,36.58z M28.84,9.78
			c-0.74,0-1.41,0.5-1.98,1.49c-2.57,4.44-2.11,16.51,1.98,24.18c4.09-7.67,4.56-19.74,1.99-24.18
			C30.25,10.28,29.59,9.78,28.84,9.78L28.84,9.78z"/>
	</g>
</g>
</svg>
