<?xml version="1.0" encoding="utf-8"?>
<!-- Generator: Adobe Illustrator 24.2.3, SVG Export Plug-In . SVG Version: 6.00 Build 0)  -->
<svg version="1.1" id="Layer_1" xmlns="http://www.w3.org/2000/svg" xmlns:xlink="http://www.w3.org/1999/xlink" x="0px" y="0px"
	 viewBox="0 0 120 120" style="enable-background:new 0 0 120 120;" xml:space="preserve">
<style type="text/css">
	.st0{fill:#231F20;}
</style>
<g>
	<g>
		<path class="st0" d="M60,120c-8.1,0-15.96-1.59-23.36-4.72c-7.14-3.02-13.56-7.35-19.07-12.86C12.06,96.92,7.73,90.5,4.71,83.36
			C1.58,75.96,0,68.1,0,60s1.59-15.96,4.72-23.36c3.02-7.14,7.35-13.56,12.86-19.07S29.49,7.74,36.64,4.72C44.04,1.59,51.9,0,60,0
			s15.96,1.59,23.36,4.72c7.14,3.02,13.56,7.35,19.07,12.86c5.51,5.51,9.83,11.93,12.86,19.07C118.41,44.04,120,51.9,120,60
			s-1.59,15.96-4.72,23.36c-3.02,7.14-7.35,13.56-12.86,19.07c-5.51,5.51-11.93,9.83-19.07,12.86C75.95,118.41,68.1,120,60,120z
			 M60,3.61c-7.61,0-15,1.49-21.95,4.43c-6.71,2.84-12.74,6.91-17.93,12.09c-5.18,5.18-9.25,11.21-12.09,17.93
			C5.09,45,3.6,52.39,3.6,60S5.1,75,8.03,81.95c2.84,6.71,6.91,12.74,12.09,17.93c5.18,5.18,11.21,9.25,17.93,12.09
			c6.95,2.94,14.34,4.43,21.95,4.43c7.61,0,15-1.49,21.95-4.43c6.71-2.84,12.74-6.91,17.93-12.09c5.18-5.18,9.25-11.21,12.09-17.93
			c2.94-6.95,4.43-14.34,4.43-21.95s-1.49-15-4.43-21.95c-2.84-6.71-6.91-12.74-12.09-17.93c-5.18-5.18-11.21-9.25-17.93-12.09
			C74.99,5.1,67.61,3.61,60,3.61z"/>
	</g>
	<g>
		<g>
			<path class="st0" d="M60,66.43c-9.51,0-17.25-7.74-17.25-17.25S50.48,31.92,60,31.92c1,0,1.81,0.81,1.81,1.81
				s-0.81,1.81-1.81,1.81c-7.52,0-13.64,6.12-13.64,13.64S52.47,62.82,60,62.82s13.64-6.12,13.64-13.64c0-1,0.81-1.81,1.81-1.81
				s1.81,0.81,1.81,1.81C77.25,58.69,69.51,66.43,60,66.43z"/>
		</g>
		<g>
			<path class="st0" d="M60,99.39c-3.18,0-6.58-1.67-10.12-4.97c-3.13-2.93-6.25-7.06-9.02-11.95c-5.91-10.45-9.43-22.9-9.43-33.29
				c0-15.75,12.82-28.57,28.57-28.57s28.57,12.82,28.57,28.57c0,10.4-3.53,22.84-9.43,33.29c-2.76,4.89-5.88,9.02-9.02,11.95
				C66.58,97.72,63.17,99.39,60,99.39z M60,24.22c-13.76,0-24.96,11.2-24.96,24.96c0,9.8,3.35,21.59,8.97,31.52
				C49.19,89.86,55.46,95.78,60,95.78s10.81-5.92,15.99-15.09c5.62-9.93,8.97-21.71,8.97-31.52C84.95,35.41,73.76,24.22,60,24.22z"
				/>
		</g>
	</g>
</g>
</svg>
