<?xml version="1.0" encoding="utf-8"?>
<!-- Generator: Adobe Illustrator 24.2.3, SVG Export Plug-In . SVG Version: 6.00 Build 0)  -->
<svg version="1.1" id="Layer_1" xmlns="http://www.w3.org/2000/svg" xmlns:xlink="http://www.w3.org/1999/xlink" x="0px" y="0px"
	 viewBox="0 0 120 120" style="enable-background:new 0 0 120 120;" xml:space="preserve">
<style type="text/css">
	.st0{fill:#231F20;}
</style>
<g>
	<g>
		<path class="st0" d="M60,120c-8.1,0-15.96-1.59-23.36-4.72c-7.15-3.02-13.56-7.35-19.07-12.86C12.06,96.92,7.74,90.5,4.72,83.36
			C1.59,75.96,0,68.1,0,60c0-8.1,1.59-15.96,4.72-23.36c3.02-7.15,7.35-13.56,12.86-19.07S29.5,7.74,36.64,4.72
			C44.04,1.59,51.9,0,60,0c8.1,0,15.96,1.59,23.36,4.72c7.14,3.02,13.56,7.35,19.07,12.86c5.51,5.51,9.84,11.93,12.86,19.07
			C118.41,44.04,120,51.9,120,60c0,8.1-1.59,15.96-4.72,23.36c-3.02,7.14-7.35,13.56-12.86,19.07c-5.51,5.51-11.93,9.84-19.07,12.86
			C75.96,118.41,68.1,120,60,120z M60,3.61c-7.61,0-15,1.49-21.95,4.43c-6.71,2.84-12.75,6.91-17.92,12.09
			c-5.18,5.18-9.25,11.21-12.09,17.92C5.1,45,3.61,52.39,3.61,60S5.1,75,8.04,81.95c2.84,6.71,6.91,12.75,12.09,17.92
			c5.18,5.18,11.21,9.25,17.92,12.09c6.95,2.94,14.34,4.43,21.95,4.43s15-1.49,21.95-4.43c6.71-2.84,12.75-6.91,17.92-12.09
			c5.18-5.18,9.25-11.21,12.09-17.92c2.94-6.95,4.43-14.34,4.43-21.95s-1.49-15-4.43-21.95c-2.84-6.71-6.91-12.75-12.09-17.92
			c-5.18-5.18-11.21-9.25-17.92-12.09C75,5.1,67.61,3.61,60,3.61z"/>
	</g>
	<g>
		<g>
			<path class="st0" d="M59.95,94.93c-1.62,0-3.24-0.51-4.59-1.54c-4.24-3.2-12.39-9.69-19.32-17.12
				c-8.5-9.12-12.81-17.09-12.81-23.68c0-11.37,9.25-20.63,20.63-20.63c4.08,0,8.02,1.19,11.4,3.44c0.76,0.51,0.97,1.53,0.46,2.29
				c-0.51,0.76-1.53,0.97-2.29,0.46c-2.84-1.89-6.15-2.88-9.57-2.88c-9.55,0-17.32,7.77-17.32,17.32c0,5.65,4.12,13.06,11.92,21.43
				c6.76,7.25,14.74,13.6,18.89,16.74c1.55,1.17,3.71,1.16,5.25-0.03c4.16-3.22,12.14-9.71,18.91-17.01
				c7.82-8.43,11.95-15.73,11.95-21.12c0-5.08-1.75-9.45-5.05-12.62c-3.15-3.03-7.51-4.7-12.27-4.7
				c-10.61,0-20.61,11.35-20.71,11.46c-0.02,0.02-0.03,0.04-0.05,0.06c-1.14,1.19-1.77,2.76-1.77,4.41c0,3.52,2.86,6.38,6.38,6.38
				c3.52,0,6.38-2.86,6.38-6.38c0-0.91,0.74-1.65,1.65-1.65s1.65,0.74,1.65,1.65c0,5.34-4.35,9.69-9.69,9.69s-9.69-4.35-9.69-9.69
				c0-2.49,0.94-4.86,2.66-6.66c0.73-0.83,11.25-12.57,23.18-12.57c5.62,0,10.79,2,14.56,5.62c3.91,3.76,6.06,9.09,6.06,15.01
				c0,6.33-4.32,14.19-12.84,23.37C77,83.44,68.86,90.06,64.62,93.34C63.25,94.4,61.6,94.93,59.95,94.93z"/>
		</g>
		<g>
			<path class="st0" d="M68.03,52.86c-0.91,0-1.65-0.74-1.65-1.65c0-2.78-2.08-5.02-3.32-6.11c-0.69-0.6-0.75-1.65-0.15-2.33
				c0.6-0.69,1.65-0.75,2.33-0.15c1.66,1.46,4.44,4.52,4.44,8.6C69.69,52.11,68.95,52.86,68.03,52.86z"/>
		</g>
	</g>
</g>
</svg>
