<?xml version="1.0" encoding="utf-8"?>
<!-- Generator: Adobe Illustrator 24.2.3, SVG Export Plug-In . SVG Version: 6.00 Build 0)  -->
<svg version="1.1" id="Layer_1" xmlns="http://www.w3.org/2000/svg" xmlns:xlink="http://www.w3.org/1999/xlink" x="0px" y="0px"
	 viewBox="0 0 120 120" style="enable-background:new 0 0 120 120;" xml:space="preserve">
<style type="text/css">
	.st0{fill:#231F20;}
	.st1{fill:none;stroke:#231F20;stroke-width:3.4917;stroke-miterlimit:10;}
</style>
<g>
	<g>
		<path class="st0" d="M60,120c-8.1,0-15.96-1.59-23.36-4.72c-7.14-3.02-13.56-7.35-19.07-12.86C12.06,96.92,7.73,90.5,4.71,83.36
			C1.58,75.96,0,68.1,0,60s1.59-15.96,4.72-23.36c3.02-7.14,7.35-13.56,12.86-19.07S29.49,7.74,36.64,4.72C44.04,1.59,51.9,0,60,0
			s15.96,1.59,23.36,4.72c7.14,3.02,13.56,7.35,19.07,12.86c5.51,5.51,9.83,11.93,12.86,19.07C118.41,44.04,120,51.9,120,60
			s-1.59,15.96-4.72,23.36c-3.02,7.14-7.35,13.56-12.86,19.07c-5.51,5.51-11.93,9.83-19.07,12.86C75.95,118.41,68.1,120,60,120z
			 M60,3.61c-7.61,0-15,1.49-21.95,4.43c-6.71,2.84-12.74,6.91-17.92,12.09S10.88,31.34,8.04,38.05C5.1,45,3.61,52.39,3.61,60
			S5.1,75,8.04,81.95c2.84,6.71,6.91,12.74,12.09,17.92c5.18,5.18,11.21,9.25,17.92,12.09c6.95,2.94,14.34,4.43,21.95,4.43
			c7.61,0,15-1.49,21.95-4.43c6.71-2.84,12.74-6.91,17.92-12.09s9.25-11.21,12.09-17.92c2.94-6.95,4.43-14.34,4.43-21.95
			s-1.49-15-4.43-21.95c-2.84-6.71-6.91-12.74-12.09-17.92c-5.18-5.18-11.21-9.25-17.92-12.09C74.99,5.1,67.61,3.61,60,3.61z"/>
	</g>
	<g>
		<path class="st0" d="M36.05,98.85c-0.96,0-1.75-0.78-1.75-1.75V74.68c0-6.26,3.35-12.11,8.75-15.28l21.71-12.72
			c1.76-1.03,3.16-2.32,4.17-3.84c1.5-2.24,2.23-4.87,2.11-7.59c-0.27-6.39-5.48-11.7-11.86-12.1c-3.55-0.22-6.92,0.99-9.5,3.41
			c-2.58,2.42-4,5.71-4,9.25c0,3.45,1.36,6.68,3.83,9.08c0.78,0.77,1.76,1.46,2.9,2.07c0.85,0.46,1.17,1.51,0.71,2.36
			c-0.46,0.85-1.51,1.17-2.36,0.71c-1.43-0.77-2.67-1.66-3.69-2.65c-3.15-3.07-4.89-7.19-4.89-11.58c0-4.45,1.86-8.75,5.1-11.79
			c3.29-3.09,7.59-4.64,12.11-4.35c3.96,0.25,7.69,1.97,10.5,4.84c2.81,2.87,4.46,6.64,4.63,10.6c0.15,3.46-0.78,6.81-2.7,9.67
			c-1.31,1.96-3.1,3.62-5.31,4.92l-21.7,12.72c-4.34,2.54-7.03,7.24-7.03,12.26V97.1C37.8,98.07,37.02,98.85,36.05,98.85z"/>
	</g>
	<g>
		<path class="st1" d="M67.15,60.96"/>
	</g>
	<g>
		<path class="st0" d="M83.94,98.85c-0.96,0-1.75-0.78-1.75-1.75V74.67c0-5.09-2.74-9.82-7.16-12.34l-9.69-5.54
			c-0.84-0.48-1.13-1.55-0.65-2.38c0.48-0.84,1.55-1.13,2.38-0.65l9.69,5.54c5.5,3.14,8.92,9.03,8.92,15.37V97.1
			C85.69,98.07,84.9,98.85,83.94,98.85z"/>
	</g>
</g>
</svg>
