<?xml version="1.0" encoding="utf-8"?>
<!-- Generator: Adobe Illustrator 24.2.3, SVG Export Plug-In . SVG Version: 6.00 Build 0)  -->
<svg version="1.1" id="Layer_1" xmlns="http://www.w3.org/2000/svg" xmlns:xlink="http://www.w3.org/1999/xlink" x="0px" y="0px"
	 viewBox="0 0 120 120" style="enable-background:new 0 0 120 120;" xml:space="preserve">
<style type="text/css">
	.st0{fill:#231F20;}
</style>
<g>
	<g>
		<path class="st0" d="M60,120c-8.1,0-15.96-1.59-23.36-4.72c-7.14-3.02-13.56-7.35-19.07-12.86C12.06,96.92,7.73,90.5,4.71,83.36
			C1.58,75.96,0,68.1,0,60s1.59-15.96,4.72-23.36c3.02-7.14,7.35-13.56,12.86-19.07S29.49,7.74,36.64,4.72C44.04,1.59,51.9,0,60,0
			s15.96,1.59,23.36,4.72c7.14,3.02,13.56,7.35,19.07,12.86c5.51,5.51,9.83,11.93,12.86,19.07C118.41,44.04,120,51.9,120,60
			s-1.59,15.96-4.72,23.36c-3.02,7.14-7.35,13.56-12.86,19.07c-5.51,5.51-11.93,9.83-19.07,12.86C75.95,118.41,68.1,120,60,120z
			 M60,3.61c-7.61,0-15,1.49-21.95,4.43c-6.71,2.84-12.74,6.91-17.92,12.09S10.88,31.34,8.04,38.05C5.1,45,3.61,52.39,3.61,60
			S5.1,75,8.04,81.95c2.84,6.71,6.91,12.74,12.09,17.93c5.18,5.18,11.21,9.25,17.92,12.09c6.95,2.94,14.33,4.43,21.95,4.43
			c7.61,0,15-1.49,21.95-4.43c6.71-2.84,12.74-6.91,17.93-12.09c5.18-5.18,9.25-11.21,12.09-17.93c2.94-6.95,4.43-14.34,4.43-21.95
			s-1.49-15-4.43-21.95c-2.84-6.71-6.91-12.74-12.09-17.93c-5.18-5.18-11.21-9.25-17.93-12.09C74.99,5.1,67.61,3.61,60,3.61z"/>
	</g>
	<g>
		<path class="st0" d="M45.74,61.81c-1,0-1.81-0.81-1.81-1.81V36.5c0-8.86,7.2-16.06,16.06-16.06c8.86,0,16.06,7.2,16.06,16.06
			v14.26c0,1-0.81,1.81-1.81,1.81c-1,0-1.81-0.81-1.81-1.81V36.5c0-6.87-5.59-12.45-12.45-12.45S47.54,29.63,47.54,36.5V60
			C47.54,61,46.74,61.81,45.74,61.81z"/>
	</g>
	<g>
		<path class="st0" d="M85.22,100.27c-3.48,0-6.75-1.35-9.21-3.81c-5.08-5.08-5.08-13.33,0-18.41c5.08-5.08,13.33-5.08,18.41,0
			c0.71,0.71,0.71,1.85,0,2.55c-0.7,0.71-1.85,0.71-2.55,0c-3.67-3.67-9.64-3.67-13.3,0s-3.67,9.64,0,13.3
			c1.78,1.78,4.14,2.76,6.65,2.76c2.51,0,4.88-0.98,6.65-2.76c1.33-1.33,2.23-3.01,2.58-4.85c0.19-0.98,1.14-1.62,2.12-1.43
			s1.62,1.14,1.43,2.12c-0.49,2.55-1.73,4.88-3.57,6.72C91.96,98.92,88.69,100.27,85.22,100.27z"/>
	</g>
	<g>
		<path class="st0" d="M84.87,92.27c-0.46,0-0.92-0.18-1.28-0.53l-3.78-3.78c-0.71-0.7-0.71-1.85,0-2.55c0.7-0.71,1.85-0.71,2.55,0
			l2.5,2.5l11.34-11.34c0.7-0.7,1.85-0.7,2.55,0c0.71,0.7,0.7,1.85,0,2.55L86.15,91.74C85.8,92.09,85.34,92.27,84.87,92.27z"/>
	</g>
	<g>
		<path class="st0" d="M74.77,93.14H34.86c-0.85,0-1.58-0.59-1.76-1.42l-8.77-40.58c-0.11-0.53,0.02-1.09,0.36-1.51
			c0.34-0.42,0.86-0.67,1.41-0.67h11.32c1,0,1.81,0.81,1.81,1.81s-0.81,1.81-1.81,1.81h-9.08l7.99,36.97h38.45
			c1,0,1.81,0.81,1.81,1.81C76.57,92.33,75.76,93.14,74.77,93.14z"/>
	</g>
	<g>
		<path class="st0" d="M88.35,78.29c-0.13,0-0.25-0.01-0.38-0.04c-0.97-0.21-1.59-1.17-1.38-2.15l5.09-23.54H54.62
			c-1,0-1.81-0.81-1.81-1.81s0.81-1.81,1.81-1.81h39.28c0.55,0,1.06,0.25,1.41,0.67c0.34,0.42,0.47,0.98,0.36,1.51l-5.56,25.73
			C89.93,77.71,89.18,78.29,88.35,78.29z"/>
	</g>
</g>
</svg>
