<?xml version="1.0" encoding="utf-8"?>
<!-- Generator: Adobe Illustrator 24.2.3, SVG Export Plug-In . SVG Version: 6.00 Build 0)  -->
<svg version="1.1" id="Layer_1" xmlns="http://www.w3.org/2000/svg" xmlns:xlink="http://www.w3.org/1999/xlink" x="0px" y="0px"
	 viewBox="0 0 120 120" style="enable-background:new 0 0 120 120;" xml:space="preserve">
<style type="text/css">
	.st0{fill:#231F20;}
</style>
<g>
	<g>
		<path class="st0" d="M37.03,74.05c-9.89,0-19.19-3.85-26.18-10.84C3.86,56.21,0.01,46.92,0.01,37.03s3.85-19.19,10.84-26.18
			S27.14,0,37.03,0s19.19,3.85,26.18,10.84c6.99,6.99,10.84,16.29,10.84,26.18s-3.85,19.19-10.84,26.18
			C56.22,70.2,46.92,74.05,37.03,74.05z M37.03,4.56c-8.67,0-16.83,3.38-22.96,9.51C7.94,20.2,4.56,28.35,4.56,37.03
			s3.38,16.83,9.51,22.96c6.13,6.13,14.29,9.51,22.96,9.51s16.83-3.38,22.96-9.51c6.13-6.13,9.51-14.29,9.51-22.96
			s-3.38-16.83-9.51-22.96C53.86,7.93,45.7,4.56,37.03,4.56z"/>
	</g>
	<g>
		<path class="st0" d="M79.96,82.24c-0.58,0-1.17-0.22-1.61-0.67L59.99,63.21c-0.89-0.89-0.89-2.33,0-3.22
			c0.89-0.89,2.33-0.89,3.22,0l18.36,18.36c0.89,0.89,0.89,2.33,0,3.22C81.13,82.01,80.55,82.24,79.96,82.24z"/>
	</g>
	<g>
		<path class="st0" d="M112.62,120c-1.89,0-3.78-0.72-5.22-2.16L74.53,84.97c-2.88-2.88-2.88-7.56,0-10.44
			c2.88-2.88,7.56-2.88,10.44,0l32.87,32.87c2.88,2.88,2.88,7.56,0,10.44C116.4,119.28,114.51,120,112.62,120z"/>
	</g>
</g>
</svg>
