<?xml version="1.0" encoding="utf-8"?>
<!-- Generator: Adobe Illustrator 24.2.3, SVG Export Plug-In . SVG Version: 6.00 Build 0)  -->
<svg version="1.1" id="Layer_1" xmlns="http://www.w3.org/2000/svg" xmlns:xlink="http://www.w3.org/1999/xlink" x="0px" y="0px"
	 viewBox="0 0 120 120" style="enable-background:new 0 0 120 120;" xml:space="preserve">
<style type="text/css">
	.st0{fill:#231F20;}
</style>
<g>
	<g>
		<path class="st0" d="M60,120c-8.1,0-15.96-1.59-23.36-4.72c-7.14-3.02-13.56-7.35-19.07-12.86C12.06,96.92,7.73,90.5,4.71,83.36
			C1.58,75.96,0,68.1,0,60s1.59-15.96,4.72-23.36c3.02-7.14,7.35-13.56,12.86-19.07S29.49,7.74,36.64,4.72C44.04,1.59,51.9,0,60,0
			s15.96,1.59,23.36,4.72c7.14,3.02,13.56,7.35,19.07,12.86c5.51,5.51,9.83,11.93,12.86,19.07C118.41,44.04,120,51.9,120,60
			s-1.59,15.96-4.72,23.36c-3.02,7.14-7.35,13.56-12.86,19.07c-5.51,5.51-11.93,9.83-19.07,12.86C75.95,118.41,68.1,120,60,120z
			 M60,3.61c-7.61,0-15,1.49-21.95,4.43c-6.71,2.84-12.74,6.91-17.92,12.09S10.88,31.34,8.04,38.05C5.1,45,3.61,52.39,3.61,60
			S5.1,75,8.04,81.95c2.84,6.71,6.91,12.74,12.09,17.93c5.18,5.18,11.21,9.25,17.92,12.09c6.95,2.94,14.34,4.43,21.95,4.43
			c7.61,0,15-1.49,21.95-4.43c6.71-2.84,12.74-6.91,17.92-12.09c5.18-5.18,9.25-11.21,12.09-17.93c2.94-6.95,4.43-14.34,4.43-21.95
			s-1.49-15-4.43-21.95c-2.84-6.71-6.91-12.74-12.09-17.93c-5.18-5.18-11.21-9.25-17.92-12.09C74.99,5.1,67.61,3.61,60,3.61z"/>
	</g>
	<g>
		<g>
			<path class="st0" d="M42.39,96.75c-0.56,0-1.13-0.11-1.67-0.35c-1.54-0.67-2.53-2.2-2.5-3.88l0.21-15.58
				c0.01-1,0.83-1.79,1.83-1.78c1,0.01,1.79,0.83,1.78,1.83l-0.21,15.58c0,0.31,0.18,0.46,0.34,0.53s0.39,0.1,0.62-0.11l7.52-7.16
				c0.43-0.41,1.03-0.58,1.62-0.46c2.63,0.55,5.35,0.83,8.08,0.83c18.18,0,32.97-12.33,32.97-27.49S78.18,31.22,60,31.22
				S27.03,43.55,27.03,58.71c0,7.28,3.39,14.15,9.54,19.34c0.76,0.64,0.86,1.78,0.22,2.54c-0.64,0.76-1.78,0.86-2.54,0.22
				c-6.98-5.88-10.83-13.73-10.83-22.1s3.84-16.21,10.83-22.09c6.89-5.81,16.04-9.01,25.75-9.01s18.86,3.2,25.75,9.01
				c6.98,5.88,10.83,13.73,10.83,22.1s-3.85,16.21-10.83,22.1c-6.89,5.81-16.04,9.01-25.75,9.01c-2.66,0-5.31-0.24-7.89-0.72
				l-6.84,6.51C44.47,96.35,43.44,96.75,42.39,96.75z"/>
		</g>
		<g>
			<path class="st0" d="M60.3,73.77c-1.49,0-3-0.18-4.52-0.55c-4.04-0.97-6.74-2.9-6.86-2.98c-0.81-0.58-0.99-1.71-0.4-2.52
				c0.58-0.81,1.71-0.99,2.52-0.41c0.06,0.04,2.35,1.65,5.71,2.43c4.39,1.02,8.51,0.2,12.23-2.43c0.81-0.58,1.94-0.38,2.52,0.43
				c0.58,0.81,0.38,1.94-0.43,2.52C67.76,72.59,64.11,73.77,60.3,73.77z"/>
		</g>
		<g>
			<g>
				<ellipse class="st0" cx="70.02" cy="51.2" rx="2.33" ry="6.12"/>
			</g>
			<g>
				<ellipse class="st0" cx="49.98" cy="51.2" rx="2.33" ry="6.12"/>
			</g>
		</g>
		<g>
			<path class="st0" d="M72.99,71.92c-0.13,0-0.27-0.01-0.4-0.05c-2.95-0.67-5.02-3.25-5.02-6.29c0-1,0.81-1.81,1.81-1.81
				c1,0,1.81,0.81,1.81,1.81c0,1.31,0.93,2.47,2.2,2.76c0.97,0.22,1.58,1.19,1.36,2.16C74.56,71.35,73.81,71.92,72.99,71.92z"/>
		</g>
	</g>
</g>
</svg>
