<?xml version="1.0" encoding="utf-8"?>
<!-- Generator: Adobe Illustrator 24.2.3, SVG Export Plug-In . SVG Version: 6.00 Build 0)  -->
<svg version="1.1" id="Layer_1" xmlns="http://www.w3.org/2000/svg" xmlns:xlink="http://www.w3.org/1999/xlink" x="0px" y="0px"
	 viewBox="0 0 120 120" style="enable-background:new 0 0 120 120;" xml:space="preserve">
<style type="text/css">
	.st0{fill:#FFFFFF;}
	.st1{fill:#231F20;}
</style>
<g>
	<g>
		<ellipse class="st0" cx="4883.91" cy="5085.31" rx="16.02" ry="42.04"/>
	</g>
	<g>
		<ellipse class="st0" cx="4746.18" cy="5085.31" rx="16.02" ry="42.04"/>
	</g>
</g>
<g>
	<g>
		<path class="st0" d="M4821.23,5190.53c-5.62,0-11.33-0.68-17.08-2.06c-14.86-3.56-24.74-10.5-25.81-11.27
			c-5.55-4.02-6.8-11.77-2.78-17.32c4-5.53,11.72-6.79,17.27-2.82c1.25,0.88,27.73,19,54.67-0.04c5.59-3.96,13.34-2.63,17.29,2.97
			c3.96,5.6,2.63,13.34-2.97,17.29C4849.4,5186.06,4835.6,5190.53,4821.23,5190.53z"/>
	</g>
</g>
<g>
	<g>
		<path class="st1" d="M60,120c-8.1,0-15.96-1.59-23.36-4.72c-7.14-3.02-13.56-7.35-19.07-12.86C12.06,96.92,7.73,90.5,4.71,83.36
			C1.58,75.96,0,68.1,0,60s1.59-15.96,4.72-23.36c3.02-7.14,7.35-13.56,12.86-19.07S29.49,7.74,36.64,4.72C44.04,1.59,51.9,0,60,0
			s15.96,1.59,23.36,4.72c7.14,3.02,13.56,7.35,19.07,12.86c5.51,5.51,9.83,11.93,12.86,19.07C118.41,44.04,120,51.9,120,60
			s-1.59,15.96-4.72,23.36c-3.02,7.14-7.35,13.56-12.86,19.07c-5.51,5.51-11.93,9.83-19.07,12.86C75.95,118.41,68.1,120,60,120z
			 M60,3.61c-7.61,0-15,1.49-21.95,4.43c-6.71,2.84-12.74,6.91-17.93,12.09c-5.18,5.18-9.25,11.21-12.09,17.93
			C5.09,45,3.6,52.39,3.6,60S5.1,75,8.03,81.95c2.84,6.71,6.91,12.74,12.09,17.93c5.18,5.18,11.21,9.25,17.93,12.09
			c6.95,2.94,14.34,4.43,21.95,4.43c7.61,0,15-1.49,21.95-4.43c6.71-2.84,12.74-6.91,17.93-12.09c5.18-5.18,9.25-11.21,12.09-17.93
			c2.94-6.95,4.43-14.34,4.43-21.95s-1.49-15-4.43-21.95c-2.84-6.71-6.91-12.74-12.09-17.93c-5.18-5.18-11.21-9.25-17.93-12.09
			C74.99,5.1,67.61,3.61,60,3.61z"/>
	</g>
	<g>
		<path class="st1" d="M42.98,94.26c-1.44,0-2.87-0.45-4.09-1.34c-2.16-1.57-3.22-4.18-2.77-6.81l2.33-13.59
			c0.19-1.09-0.17-2.2-0.96-2.97l-9.87-9.62c-1.91-1.86-2.59-4.6-1.76-7.14c0.82-2.54,2.98-4.36,5.62-4.74l13.64-1.98
			c1.09-0.16,2.04-0.85,2.53-1.83l6.1-12.36c1.18-2.39,3.57-3.88,6.25-3.88l0,0c2.67,0,5.06,1.49,6.25,3.88l6.1,12.36
			c0.49,0.99,1.43,1.68,2.53,1.83l13.64,1.98c2.64,0.38,4.8,2.2,5.62,4.74c0.82,2.54,0.15,5.28-1.76,7.14l-9.87,9.62
			c-0.79,0.77-1.15,1.88-0.96,2.97l2.33,13.59c0.45,2.63-0.61,5.24-2.77,6.81c-2.16,1.57-4.97,1.77-7.33,0.53l-12.2-6.42
			c-0.98-0.51-2.14-0.51-3.12,0l-12.2,6.42C45.2,93.99,44.09,94.26,42.98,94.26z M60,83.04c1.11,0,2.23,0.27,3.24,0.8l12.2,6.42
			c1.16,0.61,2.48,0.51,3.53-0.25s1.56-1.99,1.33-3.28l-2.33-13.59c-0.39-2.26,0.36-4.56,2-6.16l9.87-9.62
			c0.94-0.91,1.25-2.2,0.85-3.44c-0.4-1.24-1.42-2.1-2.71-2.28l-13.64-1.98c-2.27-0.33-4.23-1.75-5.24-3.81L63,33.46l0,0
			c-0.58-1.17-1.7-1.87-3.01-1.87s-2.43,0.7-3.01,1.87l-6.1,12.36c-1.01,2.06-2.98,3.48-5.24,3.81L32,51.62
			c-1.29,0.19-2.3,1.04-2.71,2.28c-0.4,1.24-0.09,2.53,0.85,3.44l9.87,9.62c1.64,1.6,2.39,3.9,2,6.16l-2.33,13.59
			C39.46,88,39.96,89.23,41.02,90c1.06,0.77,2.38,0.86,3.53,0.25l12.2-6.42C57.77,83.3,58.88,83.04,60,83.04z"/>
	</g>
	<g>
		<g>
			<ellipse class="st1" cx="70.02" cy="61.12" rx="2.33" ry="6.12"/>
		</g>
		<g>
			<ellipse class="st1" cx="49.98" cy="61.12" rx="2.33" ry="6.12"/>
		</g>
	</g>
	<g>
		<g>
			<path class="st1" d="M60.15,76.43c-0.82,0-1.65-0.1-2.48-0.3c-2.16-0.52-3.6-1.53-3.76-1.64c-0.81-0.58-0.99-1.71-0.4-2.52
				c0.58-0.8,1.71-0.99,2.51-0.41c0.18,0.13,4.03,2.76,7.95-0.01c0.81-0.58,1.94-0.38,2.52,0.43c0.58,0.81,0.38,1.94-0.43,2.52
				C64.25,75.78,62.24,76.43,60.15,76.43z"/>
		</g>
	</g>
</g>
</svg>
